<svg xmlns="http://www.w3.org/2000/svg"  viewBox="0 0 64 64" width="64px" height="64px" baseProfile="basic"><linearGradient id="jCYnU1c0Z8ChqL-S4jeIHa" x1="32.5" x2="32.5" y1="18.478" y2="44.163" gradientUnits="userSpaceOnUse"><stop offset="0" stop-color="#1A6DFF"/><stop offset="1" stop-color="#C822FF"/></linearGradient><rect width="29" height="29" x="18" y="17" fill="url(#jCYnU1c0Z8ChqL-S4jeIHa)"/><rect width="2" height="11" x="22" y="22" fill="#fafafa"/><path fill="#fafafa" d="M26.5,22H22v2h4.5c0.828,0,1.5,0.672,1.5,1.5S27.328,27,26.5,27H22v2h4.5c1.933,0,3.5-1.567,3.5-3.5	S28.433,22,26.5,22z"/><rect width="10" height="2" x="22" y="39" fill="#fafafa"/><path fill="#fafafa" d="M39.037,29.899C38.399,30.574,37.502,31,36.5,31c-1.933,0-3.5-1.567-3.5-3.5s1.567-3.5,3.5-3.5	c0.958,0,1.824,0.386,2.456,1.01l1.251-1.564C39.229,22.551,37.93,22,36.5,22c-3.038,0-5.5,2.462-5.5,5.5s2.462,5.5,5.5,5.5	c1.488,0,2.836-0.594,3.826-1.554L39.037,29.899z"/><linearGradient id="jCYnU1c0Z8ChqL-S4jeIHb" x1="32.5" x2="32.5" y1="8.304" y2="51.9" gradientUnits="userSpaceOnUse"><stop offset="0" stop-color="#8ab4ff"/><stop offset="1" stop-color="#e492ff"/></linearGradient><path fill="url(#jCYnU1c0Z8ChqL-S4jeIHb)" d="M48.862,27.381v-8.023L58,26.8	l-3.113,8.301l-2.412-8.772L48.862,27.381z M51.125,28.975l-2.263,0.669V46v1.862H47H22.874L22.1,51.3L40.9,57L57,52.3	l-3.854-15.989L51.125,28.975z M44.44,15.138L42.25,7l-7.138,8.138H44.44z M19.581,52.626l1.195-4.764H18h-1.862V46V17v-1.862H18	h14.707l4.402-4.877L28.975,6l-18.45,7.05L7,48.6L25.45,59l2.795-3.747L19.581,52.626z"/></svg>